<?xml version="1.0" encoding="UTF-8"?>
<svg id="Layer_1" data-name="Layer 1" xmlns="http://www.w3.org/2000/svg" viewBox="0 0 151.71 44.89">
  <path d="M0,.74h4.34v39.43h5.52v3.97H0V.74Z" fill="#231f20"/>
  <path d="M18.97.74v43.4h-4.34V.74h4.34Z" fill="#231f20"/>
  <path d="M27.16.74l2.23,33.23L31.62.74h4.09l-4.21,43.4h-4.34L22.94.74h4.22Z" fill="#231f20"/>
  <path d="M39.68.74h10.04v3.97h-5.7v14.63h5.39v3.97h-5.39v16.86h6.08v3.97h-10.42V.74Z" fill="#231f20"/>
  <path d="M65.97.74h4.77l4.4,43.4h-4.34l-.62-8.87h-3.84l-.68,8.87h-4.15L65.97.74ZM69.87,30.88l-1.61-22.13-1.61,22.13h3.22Z" fill="#231f20"/>
  <path d="M76.38.74h12.15v3.97h-3.91v39.43h-4.34V4.71h-3.91V.74Z" fill="#231f20"/>
  <path d="M101.55.74h5.15l3.04,29.2,3.04-29.2h5.02v43.4h-3.66V13.83l-3.47,30.32h-2.11l-3.47-30.32v30.32h-3.53V.74Z" fill="#231f20"/>
  <path d="M122.94,37.07v-9.3h4.22v9.98c0,1.86.43,3.16,1.74,3.16s1.74-1.18,1.74-3.16v-1.8c0-5.64-1.43-8.99-3.41-12.83l-.74-1.43c-2.11-4.09-3.53-7.75-3.53-13.08v-1.49c0-4.15,1.61-7.13,5.95-7.13s5.83,2.85,5.83,6.88v8.87h-4.21V6.57c0-1.61-.43-2.6-1.67-2.6s-1.61,1.05-1.61,2.54v1.55c0,4.59.99,7.44,2.73,10.79l.62,1.18c2.29,4.4,4.34,8.68,4.34,15.25v1.43c0,5.46-1.98,8.18-6.01,8.18-4.28,0-5.95-2.91-5.95-7.81Z" fill="#231f20"/>
  <path d="M139.62,6.63c0-4.15,2.17-6.63,6.08-6.63s6.01,2.48,6.01,6.63v9.11h-4.28V6.08c0-1.3-.56-2.11-1.74-2.11s-1.74.81-1.74,2.11v32.73c0,1.3.56,2.11,1.74,2.11s1.74-.81,1.74-2.11v-14.57h-2.05v-4.34h6.32v18.35c0,4.15-2.17,6.63-6.01,6.63s-6.08-2.48-6.08-6.63V6.63Z" fill="#231f20"/>
</svg>