<svg width="862" height="981" viewBox="0 0 862 981" fill="none" xmlns="http://www.w3.org/2000/svg">
<path d="M9.66504 730.621C9.66504 703.508 23.8851 687.297 49.3864 687.297C74.8876 687.297 88.6337 703.508 88.6337 730.621V790.155H60.6676V727.018C60.6676 718.486 57.0652 713.272 49.2916 713.272C41.5179 713.272 37.9156 718.581 37.9156 727.018V940.888C37.9156 949.42 41.5179 954.634 49.2916 954.634C57.0652 954.634 60.6676 949.325 60.6676 940.888V845.708H47.3008V817.363H88.6337V937.285C88.6337 964.398 74.4136 980.609 49.3864 980.609C24.3591 980.609 9.66504 964.398 9.66504 937.285V730.715V730.621Z" fill="#010101"/>
<path d="M0 10.4219H30.9048L49.1065 185.613L67.3082 10.4219H97.4547V270.744H75.5558V88.9166L54.6997 270.744H42.0913L21.2352 88.9166V270.744H0V10.4219Z" fill="#010101"/>
<path d="M149.511 10.4219H178.141L204.59 270.744H178.52L174.823 217.561H151.786L147.71 270.744H122.777L149.511 10.4219ZM172.927 191.111L163.257 58.3909L153.587 191.111H172.927Z" fill="#010101"/>
<path d="M229.891 10.4219H267.432C291.985 10.4219 302.792 25.3055 302.792 49.4796V231.686C302.792 255.86 291.985 270.744 267.432 270.744H229.891V10.4219ZM264.398 246.949C271.792 246.949 276.627 240.976 276.627 231.686V49.4796C276.627 40.1892 271.792 34.2168 264.398 34.2168H255.866V246.949H264.398Z" fill="#010101"/>
<path d="M361.852 10.4219V270.744H335.782V10.4219H361.852Z" fill="#010101"/>
<path d="M392.754 228.377V172.634H418.066V232.548C418.066 243.735 420.625 251.508 428.494 251.508C436.362 251.508 438.922 244.398 438.922 232.548V221.741C438.922 187.897 430.39 167.8 418.445 144.763L413.989 136.231C401.381 111.678 392.754 89.779 392.754 57.7365V48.8253C392.754 23.8928 402.424 6.07031 428.494 6.07031C454.564 6.07031 463.475 23.1344 463.475 47.4032V100.586H438.163V45.5073C438.163 35.8376 435.604 29.8652 428.114 29.8652C420.625 29.8652 418.445 36.2168 418.445 45.1281V54.4184C418.445 81.9105 424.417 99.0694 434.845 119.167L438.542 126.277C452.288 152.726 464.612 178.322 464.612 217.759V226.291C464.612 258.997 452.668 275.398 428.494 275.398C402.803 275.398 392.754 257.955 392.754 228.567V228.377Z" fill="#010101"/>
<path d="M779.27 10.4219H801.168L827.618 152.812V10.4219H851.413V270.744H832.452L803.064 129.396V270.744H779.27V10.4219Z" fill="#010101"/>
<path d="M5.31445 582.178V519.041H33.9441V586.728C33.9441 599.337 36.883 608.153 45.6994 608.153C54.5158 608.153 57.4546 600.19 57.4546 586.728V574.499C57.4546 536.2 47.785 513.448 34.3233 487.378L29.2989 477.708C14.9841 449.932 5.31445 425.094 5.31445 388.975V378.926C5.31445 350.771 16.2165 330.578 45.6994 330.578C75.1823 330.578 85.2311 349.917 85.2311 377.315V437.513H56.6014V375.229C56.6014 364.327 53.6626 357.596 45.2254 357.596C36.7881 357.596 34.3233 364.706 34.3233 374.85V385.373C34.3233 416.467 41.0542 435.901 52.8094 458.558L56.9806 466.522C72.5278 496.384 86.4635 525.393 86.4635 570.044V579.713C86.4635 616.78 73.0019 635.266 45.6994 635.266C16.6905 635.266 5.31445 615.453 5.31445 582.273V582.178Z" fill="#010101"/>
<path d="M440.451 592.218V335.594H469.934V592.692C469.934 602.362 473.347 608.239 481.689 608.239C490.032 608.239 493.444 602.362 493.444 592.692V335.594H522.927V592.218C522.927 619.995 508.233 635.163 481.689 635.163C455.145 635.163 440.451 619.995 440.451 592.218Z" fill="#010101"/>
<path d="M579.324 335.594H611.746L641.608 630.138H612.125L607.954 569.94H581.884L577.239 630.138H549.083L579.419 335.594H579.324ZM605.774 540.078L594.871 389.914L583.97 540.078H605.868H605.774Z" fill="#010101"/>
<path d="M670.14 335.595H712.61C739.533 335.595 750.436 349.53 750.436 371.809V437.41C750.436 457.603 743.705 467.652 728.158 471.064C744.179 473.624 749.203 482.44 749.203 501.4V630.139H720.194V499.694C720.194 489.171 716.023 483.673 704.173 483.673H699.528V630.044H670.045V335.5L670.14 335.595ZM703.415 456.75C716.023 456.75 721.048 451.725 721.048 440.728V376.738C721.048 366.594 716.876 362.423 706.733 362.423H699.623V456.655H703.415V456.75Z" fill="#010101"/>
<path d="M787.99 335.595H856.152V362.518H817.473V461.774H854.066V488.697H817.473V603.121H858.711V630.044H787.99V335.5V335.595Z" fill="#010101"/>
<path d="M156.795 691.668H188.174L217.088 977.206H188.553L184.477 918.904H159.165L154.71 977.206H127.407L156.795 691.668ZM182.486 889.895L171.869 744.282L161.251 889.895H182.486Z" fill="#010101"/>
<path d="M255.867 691.658H297.105C323.175 691.658 333.793 705.12 333.793 726.734V790.346C333.793 809.874 327.252 819.734 312.179 822.957C327.631 825.422 332.561 833.954 332.561 852.345V977.102H304.405V850.638C304.405 840.4 300.329 835.091 288.858 835.091H284.402V977.007H255.867V691.469V691.658ZM288.099 809.116C300.329 809.116 305.258 804.186 305.258 793.664V731.664C305.258 721.9 301.182 717.823 291.417 717.823H284.497V809.211H288.194L288.099 809.116Z" fill="#010101"/>
<path d="M374.738 691.668H415.882C442.805 691.668 454.655 707.974 454.655 734.518V934.357C454.655 960.901 442.805 977.206 415.882 977.206H374.738V691.668ZM412.658 951.042C420.811 951.042 426.12 944.5 426.12 934.357V734.518C426.12 724.279 420.811 717.833 412.658 717.833H403.273V951.136H412.658V951.042Z" fill="#010101"/>
<path d="M487 691.658H553.076V717.728H515.535V813.951H550.99V840.021H515.535V950.937H555.541V977.007H487V691.469V691.658Z" fill="#010101"/>
<path d="M105.521 485.384C105.521 402.434 173.019 335.41 256.349 335.41C339.678 335.41 407.176 402.529 407.176 485.384C407.176 520.081 395.61 551.744 375.892 577.151L414.855 606.823L395.99 630.713L354.751 599.05C328.113 621.802 293.795 635.263 256.444 635.263C173.114 635.263 105.616 568.145 105.616 485.289L105.521 485.384ZM314.841 530.888L349.917 557.906C365.369 537.429 374.186 512.781 374.186 485.384C374.186 419.024 321.003 366.22 256.159 366.22C191.316 366.22 138.133 419.024 138.133 485.384C138.133 551.744 191.316 604.548 256.159 604.548C283.177 604.548 308.584 595.258 328.681 579.521L264.691 530.888H314.841Z" fill="#010101"/>
<path d="M621.885 266.956C691.677 266.956 748.254 210.379 748.254 140.588C748.254 70.796 691.677 14.2188 621.885 14.2188C552.094 14.2188 495.517 70.796 495.517 140.588C495.517 210.379 552.094 266.956 621.885 266.956Z" stroke="#010101" stroke-width="28.4401" stroke-miterlimit="10"/>
<path d="M833.516 692.07V951.17L627.694 692.07H596.75H580V977.07H608.484V717.678H608.579L815.631 976.973L833.327 977.07H833.516H862V692.07H833.516Z" fill="#010101"/>
</svg>
