<svg width="1040" height="1169" viewBox="0 0 1040 1169" fill="none" xmlns="http://www.w3.org/2000/svg">
<path d="M95.665 821.55C95.665 794.437 109.885 778.227 135.386 778.227C160.888 778.227 174.634 794.437 174.634 821.55V881.085H146.668V817.948C146.668 809.416 143.065 804.202 135.292 804.202C127.518 804.202 123.916 809.511 123.916 817.948V1031.82C123.916 1040.35 127.518 1045.56 135.292 1045.56C143.065 1045.56 146.668 1040.25 146.668 1031.82V936.638H133.301V908.293H174.634V1028.21C174.634 1055.33 160.414 1071.54 135.386 1071.54C110.359 1071.54 95.665 1055.33 95.665 1028.21V821.645V821.55Z" fill="#010101"/>
<path d="M86 101.352H116.905L135.107 276.543L153.308 101.352H183.455V361.673H161.556V179.846L140.7 361.673H128.091L107.235 179.846V361.673H86V101.352Z" fill="#010101"/>
<path d="M235.511 101.352H264.141L290.59 361.673H264.52L260.823 308.49H237.786L233.71 361.673H208.777L235.511 101.352ZM258.927 282.041L249.257 149.321L239.587 282.041H258.927Z" fill="#010101"/>
<path d="M315.891 101.352H353.432C377.985 101.352 388.792 116.235 388.792 140.409V322.615C388.792 346.79 377.985 361.673 353.432 361.673H315.891V101.352ZM350.398 337.878C357.792 337.878 362.627 331.906 362.627 322.615V140.409C362.627 131.119 357.792 125.146 350.398 125.146H341.866V337.878H350.398Z" fill="#010101"/>
<path d="M447.852 101.352V361.673H421.782V101.352H447.852Z" fill="#010101"/>
<path d="M478.754 319.307V263.564H504.066V323.478C504.066 334.664 506.625 342.438 514.494 342.438C522.362 342.438 524.922 335.328 524.922 323.478V312.671C524.922 278.827 516.39 258.729 504.445 235.693L499.989 227.161C487.381 202.608 478.754 180.709 478.754 148.666V139.755C478.754 114.822 488.424 97 514.494 97C540.564 97 549.475 114.064 549.475 138.333V191.516H524.163V136.437C524.163 126.767 521.604 120.795 514.114 120.795C506.625 120.795 504.445 127.147 504.445 136.058V145.348C504.445 172.84 510.417 189.999 520.845 210.097L524.542 217.207C538.288 243.656 550.612 269.252 550.612 308.689V317.221C550.612 349.927 538.668 366.328 514.494 366.328C488.803 366.328 478.754 348.884 478.754 319.496V319.307Z" fill="#010101"/>
<path d="M865.27 101.352H887.168L913.618 243.742V101.352H937.413V361.673H918.452L889.064 220.326V361.673H865.27V101.352Z" fill="#010101"/>
<path d="M91.3145 673.108V609.971H119.944V677.658C119.944 690.267 122.883 699.083 131.699 699.083C140.516 699.083 143.455 691.12 143.455 677.658V665.429C143.455 627.13 133.785 604.378 120.323 578.307L115.299 568.638C100.984 540.861 91.3145 516.024 91.3145 479.905V469.856C91.3145 441.7 102.217 421.508 131.699 421.508C161.182 421.508 171.231 440.847 171.231 468.244V528.443H142.601V466.159C142.601 455.257 139.663 448.526 131.225 448.526C122.788 448.526 120.323 455.636 120.323 465.78V476.302C120.323 507.397 127.054 526.831 138.809 549.488L142.981 557.451C158.528 587.313 172.463 616.322 172.463 660.973V670.643C172.463 707.71 159.002 726.196 131.699 726.196C102.691 726.196 91.3145 706.383 91.3145 673.202V673.108Z" fill="#010101"/>
<path d="M526.451 683.148V426.523H555.934V683.622C555.934 693.291 559.347 699.169 567.689 699.169C576.032 699.169 579.444 693.291 579.444 683.622V426.523H608.927V683.148C608.927 710.924 594.233 726.092 567.689 726.092C541.145 726.092 526.451 710.924 526.451 683.148Z" fill="#010101"/>
<path d="M665.324 426.523H697.746L727.608 721.068H698.125L693.954 660.87H667.884L663.239 721.068H635.083L665.419 426.523H665.324ZM691.774 631.008L680.871 480.844L669.97 631.008H691.868H691.774Z" fill="#010101"/>
<path d="M756.14 426.525H798.61C825.533 426.525 836.436 440.46 836.436 462.738V528.34C836.436 548.532 829.705 558.581 814.158 561.994C830.179 564.554 835.203 573.37 835.203 592.33V721.069H806.194V590.624C806.194 580.101 802.023 574.603 790.173 574.603H785.528V720.974H756.045V426.43L756.14 426.525ZM789.415 547.679C802.023 547.679 807.048 542.655 807.048 531.658V467.668C807.048 457.524 802.876 453.353 792.733 453.353H785.623V547.584H789.415V547.679Z" fill="#010101"/>
<path d="M873.99 426.525H942.152V453.448H903.473V552.704H940.066V579.627H903.473V694.051H944.711V720.974H873.99V426.43V426.525Z" fill="#010101"/>
<path d="M242.795 782.598H274.174L303.088 1068.14H274.553L270.477 1009.83H245.165L240.71 1068.14H213.407L242.795 782.598ZM268.486 980.825L257.869 835.212L247.251 980.825H268.486Z" fill="#010101"/>
<path d="M341.867 782.588H383.105C409.175 782.588 419.793 796.05 419.793 817.664V881.275C419.793 900.804 413.252 910.663 398.179 913.887C413.631 916.351 418.561 924.883 418.561 943.275V1068.03H390.405V941.568C390.405 931.33 386.329 926.021 374.858 926.021H370.402V1067.94H341.867V782.398V782.588ZM374.099 900.046C386.329 900.046 391.258 895.116 391.258 884.593V822.594C391.258 812.829 387.182 808.753 377.417 808.753H370.497V900.141H374.194L374.099 900.046Z" fill="#010101"/>
<path d="M460.738 782.598H501.882C528.805 782.598 540.655 798.903 540.655 825.447V1025.29C540.655 1051.83 528.805 1068.14 501.882 1068.14H460.738V782.598ZM498.658 1041.97C506.811 1041.97 512.12 1035.43 512.12 1025.29V825.447C512.12 815.209 506.811 808.763 498.658 808.763H489.273V1042.07H498.658V1041.97Z" fill="#010101"/>
<path d="M573 782.588H639.076V808.658H601.535V904.881H636.99V930.951H601.535V1041.87H641.541V1067.94H573V782.398V782.588Z" fill="#010101"/>
<path d="M191.521 576.314C191.521 493.364 259.019 426.34 342.349 426.34C425.678 426.34 493.176 493.458 493.176 576.314C493.176 611.011 481.61 642.674 461.892 668.081L500.855 697.753L481.99 721.643L440.751 689.979C414.113 712.731 379.795 726.193 342.444 726.193C259.114 726.193 191.616 659.074 191.616 576.219L191.521 576.314ZM400.841 621.818L435.917 648.836C451.369 628.359 460.186 603.711 460.186 576.314C460.186 509.954 407.003 457.15 342.159 457.15C277.316 457.15 224.133 509.954 224.133 576.314C224.133 642.674 277.316 695.478 342.159 695.478C369.177 695.478 394.584 686.187 414.681 670.451L350.691 621.818H400.841Z" fill="#010101"/>
<path d="M707.885 357.886C777.677 357.886 834.254 301.309 834.254 231.517C834.254 161.726 777.677 105.148 707.885 105.148C638.094 105.148 581.517 161.726 581.517 231.517C581.517 301.309 638.094 357.886 707.885 357.886Z" stroke="#010101" stroke-width="28.4401" stroke-miterlimit="10"/>
<path d="M919.516 783V1042.1L713.694 783H682.75H666V1068H694.484V808.608H694.579L901.631 1067.9L919.327 1068H919.516H948V783H919.516Z" fill="#010101"/>
</svg>
